<?xml version="1.0" encoding="utf-8"?>
<!-- Svg Vector Icons : http://www.onlinewebfonts.com/icon -->
<!DOCTYPE svg PUBLIC "-//W3C//DTD SVG 1.1//EN" "http://www.w3.org/Graphics/SVG/1.1/DTD/svg11.dtd">
<svg version="1.1" xmlns="http://www.w3.org/2000/svg" xmlns:xlink="http://www.w3.org/1999/xlink" x="0px" y="0px" width="64px" height="64px" viewBox="0 0 256 256" enable-background="new 0 0 256 256" xml:space="preserve">
<metadata> Svg Vector Icons : http://www.onlinewebfonts.com/icon </metadata>
<g><g><g><path fill="#000000" d="M157.7,12.5c0,0.3,0.6,3.1,1.2,6.2l1.2,5.7l8.9-0.1c4.9-0.1,8.9-0.1,8.9-0.2c0,0-1.6-10.7-1.7-11.1c0,0-2.4-0.1-5.4-0.3c-3-0.1-7.2-0.3-9.2-0.5C158.4,12,157.7,12.1,157.7,12.5z"/><path fill="#000000" d="M114,22.6c-3.7,1.9-6.6,3.7-6.6,3.9c0,0.2,2.2,3.1,4.9,6.4l4.9,6l7-4c3.9-2.3,7.1-4.1,7.2-4.2c0.2-0.1-10-11.4-10.4-11.5C120.8,19.2,117.6,20.7,114,22.6z"/><path fill="#000000" d="M167.1,26c-32.3,3.5-59.5,20.6-80.5,50.7c-9,12.9-24,41.9-32.5,62.9c-11.7,28.9-19.3,65.5-19.3,92.5c0,3.7,0.1,7.9,0.3,9.3l0.2,2.5H93h57.7l-0.9-2c-0.5-1.1-2-5-3.3-8.6c-8-22.2-13.3-45.4-15.4-67.6c-0.6-6.4-0.6-23.3,0-29c1-9.8,3.1-19.3,5.8-26.7c3.2-8.7,9.3-19.6,14.9-26.5C164.4,68,182.2,56.7,199.8,53c5.5-1.1,13.8-1.1,19.2,0c7.1,1.5,13.5,4.5,19,9c1.6,1.2,3,2.1,3.1,1.9c0.2-0.2,1.4-1.9,2.6-3.8l2.3-3.5l-1.8-1.6c-16.5-14.7-35.5-24.4-54.4-28c-4.3-0.8-6.2-1-13.1-1.1C172.2,25.9,167.9,25.9,167.1,26z"/><path fill="#000000" d="M217.7,27.2c-0.1,0.7-0.2,2.5-0.2,3.8v2.4l5.8,3.1c3.2,1.7,5.9,3.1,6.1,3.2c0.2,0.1,2.5-3.3,2.5-3.7c0-0.2-12.4-9.3-13.5-10C218.1,25.9,217.8,26.3,217.7,27.2z"/><path fill="#000000" d="M66.6,62.9c-3.2,3.6-5.9,6.6-5.9,6.8c0,0.1,3.4,2.5,7.5,5.3c5.9,3.9,7.8,5,8.1,4.7c1.5-1.2,11.3-13.3,11-13.5c-0.4-0.4-14.5-9.6-14.7-9.6C72.5,56.4,69.9,59.3,66.6,62.9z"/><path fill="#000000" d="M215.3,62.2l0.1,3.2l4.1,0.4c2.3,0.2,4.8,0.5,5.6,0.6l1.6,0.2l-0.1-2.7l-0.1-2.7l-4.4-1c-2.4-0.6-5-1.1-5.6-1.3l-1.2-0.2L215.3,62.2z"/><path fill="#000000" d="M184.6,62.8c-2.5,0.7-5.1,1.3-5.6,1.5l-1,0.3l2.1,3.9c1.1,2.2,2.4,4.5,2.8,5.2l0.7,1.2l2.8-2.2c1.6-1.2,3.4-2.7,4.1-3.3l1.3-1l-0.8-3.4c-0.4-1.9-1-3.4-1.3-3.4C189.4,61.6,187.2,62.2,184.6,62.8z"/><path fill="#000000" d="M157.9,79.9c-1,1-3,2.8-4.4,4l-2.5,2.3l6.1,6.8c3.4,3.7,6.2,6.8,6.4,6.9c0.1,0,1.3-2,2.7-4.4l2.5-4.5l-4.2-6.4c-2.3-3.5-4.4-6.4-4.5-6.4C159.8,78.2,158.9,79,157.9,79.9z"/><path fill="#000000" d="M33.6,114.6c-0.2,0.6-1.7,4.7-3.2,9l-2.9,8l8,2.5c11.1,3.6,12.2,3.9,12.4,3.7c0.4-0.4,6-16.4,5.8-16.6c-0.2-0.2-19.1-7.7-19.4-7.7C34.1,113.6,33.9,114,33.6,114.6z"/><path fill="#000000" d="M140,119.3c-1.4,3-2.7,5.5-2.7,5.7c0,0.3,13.7,12.3,14.3,12.5c0.1,0.1,1-3.1,2-6.9l1.7-7l-1.5-1.2c-1.8-1.5-10.9-8.3-11-8.3C142.8,114,141.5,116.4,140,119.3z"/><path fill="#000000" d="M136.5,158c-0.1,2.5-0.3,5.9-0.3,7.6l-0.1,3.1l6.5,2.8c3.5,1.6,7.6,3.3,9,3.9l2.5,1.1l-0.3-3.8c-0.1-2.1-0.3-5.3-0.4-7.2l-0.3-3.4l-7.9-4.2c-4.4-2.3-8-4.2-8.2-4.3C136.8,153.5,136.6,155.5,136.5,158z"/><path fill="#000000" d="M12.3,186.3c0,0.3-0.6,5.1-1.3,10.7c-0.7,5.6-1.1,10.3-1,10.4c0.3,0.3,20.6,2.7,20.9,2.5c0.1-0.1,3.9-21.2,3.9-22c0-0.2-3.8-0.7-8.9-1c-4.9-0.4-10-0.7-11.3-0.8C12.8,185.9,12.3,185.9,12.3,186.3z"/><path fill="#000000" d="M142.2,207.5c0,0.6,4,15,4.1,15.2c0.2,0.2,22.5,1.3,22.7,1.2c0.1-0.1-1.7-3.9-3.9-8.4l-4.1-8.3l-9.4-0.1C143.5,207,142.2,207,142.2,207.5z"/></g></g></g>
</svg>